<svg width="267" height="55" viewBox="0 0 267 55" fill="none" xmlns="http://www.w3.org/2000/svg">
<path d="M88.6408 38.5078V44.2651H64.9895V10.4825H88.209V16.2397H71.6101V24.3761H85.9064V29.7053H71.6101V38.5078H88.6408Z" fill="#F8F8F8"/>
<path d="M97.3719 44.1394L88.1128 19.0986H94.7333L101.162 38.3097L107.494 19.0986H113.587L104.328 44.1394H97.3719Z" fill="#F8F8F8"/>
<path d="M119.008 29.5567H132.153C132.025 28.3062 131.665 27.2198 131.073 26.2975C130.481 25.3753 129.706 24.6563 128.747 24.1406C127.787 23.6248 126.715 23.3669 125.532 23.3669C124.381 23.3669 123.333 23.6248 122.39 24.1406C121.446 24.6563 120.679 25.3753 120.087 26.2975C119.495 27.2198 119.135 28.3062 119.008 29.5567ZM125.58 44.4794C123.565 44.4794 121.742 44.1389 120.111 43.4596C118.48 42.7796 117.089 41.8462 115.937 40.6601C114.786 39.4741 113.906 38.1215 113.299 36.6033C112.691 35.0851 112.387 33.456 112.387 31.7158C112.387 29.3752 112.923 27.2159 113.995 25.2382C115.066 23.2604 116.585 21.6784 118.552 20.4924C120.519 19.3064 122.877 18.7125 125.628 18.7125C128.346 18.7125 130.681 19.3071 132.632 20.4947C134.583 21.683 136.087 23.2432 137.142 25.1759C138.197 27.1088 138.725 29.2154 138.725 31.4961C138.725 31.9086 138.709 32.2961 138.677 32.6605C138.645 33.0248 138.613 33.3339 138.581 33.5871H119.2C119.296 34.9007 119.656 36.0186 120.279 36.9407C120.903 37.8629 121.702 38.5743 122.678 39.0745C123.653 39.5753 124.685 39.825 125.772 39.825C127.083 39.825 128.307 39.5131 129.442 38.8892C130.577 38.2656 131.353 37.4258 131.769 36.3702L137.238 37.9056C136.662 39.1854 135.814 40.3213 134.695 41.3123C133.575 42.3043 132.249 43.0802 130.713 43.6396C129.178 44.1988 127.467 44.4794 125.58 44.4794Z" fill="#F8F8F8"/>
<path d="M163.816 44.1394H157.387V30.1595C157.387 28.1624 157.043 26.7043 156.356 25.7848C155.668 24.8658 154.684 24.4059 153.406 24.4059C152.542 24.4059 151.67 24.6261 150.791 25.0655C149.911 25.5058 149.128 26.1104 148.44 26.8793C147.752 27.649 147.217 28.5363 146.833 29.5412V44.1394H140.453V19.0985H146.257V23.7696C146.897 22.6885 147.712 21.7818 148.704 21.0505C149.695 20.3192 150.831 19.7461 152.11 19.333C153.389 18.9199 154.765 18.7126 156.236 18.7126C157.803 18.7126 159.09 18.9916 160.098 19.5479C161.105 20.1043 161.873 20.8597 162.401 21.8139C162.928 22.7684 163.296 23.8255 163.504 24.9864C163.712 26.1473 163.816 27.3159 163.816 28.4918V44.1394Z" fill="#F8F8F8"/>
<path d="M182.143 42.607C181.567 42.8579 180.903 43.1161 180.152 43.3816C179.4 43.6478 178.584 43.8665 177.705 44.0389C176.825 44.2104 175.937 44.2971 175.042 44.2971C173.826 44.2971 172.723 44.0954 171.732 43.6926C170.74 43.2892 169.949 42.646 169.357 41.762C168.765 40.8788 168.47 39.7235 168.47 38.2976V23.6325H165.208V18.844H168.47V10.5538H174.946V18.844H180.224V23.6325H174.946V36.1601C174.978 36.9948 175.218 37.6049 175.666 37.9909C176.114 38.3767 176.689 38.5697 177.393 38.5697C178.032 38.5697 178.672 38.4523 179.312 38.2177C179.951 37.9828 180.479 37.7716 180.895 37.5837L182.143 42.607Z" fill="#F8F8F8"/>
<path d="M212.558 10.4825V44.2651H205.985V29.848H190.537V44.2651H183.917V10.4825H190.537V24.1383H205.985V10.4825H212.558Z" fill="#F8F8F8"/>
<path d="M221.481 29.5567H234.626C234.498 28.3062 234.138 27.2198 233.546 26.2975C232.954 25.3753 232.179 24.6563 231.22 24.1406C230.26 23.6248 229.188 23.3669 228.005 23.3669C226.854 23.3669 225.806 23.6248 224.863 24.1406C223.919 24.6563 223.152 25.3753 222.56 26.2975C221.968 27.2198 221.608 28.3062 221.481 29.5567ZM228.053 44.4794C226.039 44.4794 224.215 44.1389 222.584 43.4596C220.953 42.7796 219.562 41.8462 218.411 40.6601C217.259 39.4741 216.379 38.1215 215.772 36.6033C215.164 35.0851 214.861 33.456 214.861 31.7158C214.861 29.3752 215.396 27.2159 216.468 25.2382C217.539 23.2604 219.058 21.6784 221.025 20.4924C222.992 19.3064 225.35 18.7125 228.101 18.7125C230.819 18.7125 233.154 19.3071 235.106 20.4947C237.056 21.683 238.56 23.2432 239.615 25.1759C240.671 27.1088 241.198 29.2154 241.198 31.4961C241.198 31.9086 241.182 32.2961 241.15 32.6605C241.118 33.0248 241.086 33.3339 241.054 33.5871H221.673C221.769 34.9007 222.129 36.0186 222.752 36.9407C223.376 37.8629 224.175 38.5743 225.151 39.0745C226.126 39.5753 227.158 39.825 228.245 39.825C229.556 39.825 230.78 39.5131 231.915 38.8892C233.05 38.2656 233.826 37.4258 234.242 36.3702L239.711 37.9056C239.135 39.1854 238.288 40.3213 237.168 41.3123C236.049 42.3043 234.722 43.0802 233.187 43.6396C231.651 44.1988 229.94 44.4794 228.053 44.4794Z" fill="#F8F8F8"/>
<path d="M246.091 19.0963L251.32 26.9852L251.752 27.9042L252.232 26.9852L257.461 19.0963H264.226L255.494 31.7276L264.37 44.4551H257.605L252.232 36.5671L251.752 35.744L251.369 36.5671L245.995 44.4551H239.231L248.106 31.8727L239.375 19.0963H246.091Z" fill="#F8F8F8"/>
<path d="M19.9028 2.21875C9.87621 2.21875 1.71875 10.3759 1.71875 20.4028V35.5972C1.71875 45.6239 9.87621 53.7812 19.9028 53.7812H35.0973C45.1239 53.7812 53.2812 45.6239 53.2812 35.5972V28.8535L45.1902 33.6572V35.5972C45.1902 41.1624 40.6624 45.69 35.0973 45.69H19.9028C14.3376 45.69 9.80992 41.1624 9.80992 35.5972V20.4028C9.80992 14.8374 14.3376 10.3098 19.9028 10.3098H35.0973C38.7569 10.3098 42.1663 12.3477 43.9329 15.5395L27.2675 25.6407L22.6278 17.9861L20.8421 19.0684C20.8432 19.0705 20.8446 19.0722 20.8458 19.0742C21.3779 19.9662 21.0648 21.1332 20.1467 21.6809C19.2348 22.2246 18.0698 21.9519 17.5327 21.0744L15.7085 22.1801L24.5419 36.754L53.2547 19.3506L53.2276 18.9953C53.0495 16.6712 52.4332 14.4447 51.4052 12.3651L51.4172 12.3579L50.8721 11.3334L50.8631 11.3386C47.6171 5.69763 41.6321 2.21875 35.0973 2.21875H19.9028Z" fill="white"/>
</svg>
