<svg width="21" height="21" viewBox="0 0 21 21" fill="none" xmlns="http://www.w3.org/2000/svg">
<path d="M10.4236 18.0647C6.28133 18.0647 2.92358 14.7069 2.92358 10.5647C2.92358 6.42245 6.28133 3.0647 10.4236 3.0647C14.5658 3.0647 17.9236 6.42245 17.9236 10.5647C17.9236 14.7069 14.5658 18.0647 10.4236 18.0647ZM8.70608 16.3149C7.96614 14.7454 7.53749 13.0474 7.44383 11.3147H4.47008C4.61602 12.4689 5.09402 13.5558 5.84601 14.4435C6.598 15.3311 7.59159 15.9813 8.70608 16.3149ZM8.94608 11.3147C9.05933 13.1439 9.58208 14.8622 10.4236 16.3787C11.2878 14.8221 11.7927 13.0918 11.9011 11.3147H8.94608ZM16.3771 11.3147H13.4033C13.3097 13.0474 12.881 14.7454 12.1411 16.3149C13.2556 15.9813 14.2492 15.3311 15.0012 14.4435C15.7531 13.5558 16.2311 12.4689 16.3771 11.3147ZM4.47008 9.8147H7.44383C7.53749 8.08204 7.96614 6.38396 8.70608 4.81445C7.59159 5.14811 6.598 5.79826 5.84601 6.68592C5.09402 7.57358 4.61602 8.66052 4.47008 9.8147ZM8.94683 9.8147H11.9003C11.7921 8.03765 11.2876 6.30735 10.4236 4.7507C9.55934 6.30728 9.0545 8.03759 8.94608 9.8147H8.94683ZM12.1411 4.81445C12.881 6.38396 13.3097 8.08204 13.4033 9.8147H16.3771C16.2311 8.66052 15.7531 7.57358 15.0012 6.68592C14.2492 5.79826 13.2556 5.14811 12.1411 4.81445Z" fill="#525866"/>
</svg>
