<svg width="20" height="20" viewBox="0 0 20 20" fill="none" xmlns="http://www.w3.org/2000/svg">
<path d="M8.5 13.5V6.5C8.5 6.23478 8.60536 5.99021 8.79289 5.80269C8.98041 5.61518 9.23478 5.5 9.5 5.5H10.5C10.7652 5.5 11.0098 5.61518 11.1973 5.80269C11.3848 5.99021 11.5 6.23478 11.5 6.5V13.5C11.5 13.7652 11.3848 14.0098 11.1973 14.1973C11.0098 14.3848 10.7652 14.5 10.5 14.5H9.5C9.23478 14.5 8.98041 14.3848 8.79289 14.1973C8.60536 14.0098 8.5 13.7652 8.5 13.5Z" fill="#FFFFFF" stroke="#FFFFFF" stroke-width="1.5" stroke-linecap="round" stroke-linejoin="round"/>
<path d="M10 17.5C14.1421 17.5 17.5 14.1421 17.5 10C17.5 5.85786 14.1421 2.5 10 2.5C5.85786 2.5 2.5 5.85786 2.5 10C2.5 14.1421 5.85786 17.5 10 17.5Z" stroke="#FFFFFF" stroke-width="1.5" stroke-linecap="round" stroke-linejoin="round"/>
</svg>
