<svg width="20" height="21" viewBox="0 0 20 21" fill="none" xmlns="http://www.w3.org/2000/svg">
<path d="M15.532 10.812L7.58275 16.1115C7.52628 16.1491 7.46067 16.1706 7.39292 16.1739C7.32516 16.1771 7.2578 16.1619 7.198 16.1299C7.1382 16.0979 7.0882 16.0503 7.05334 15.9921C7.01847 15.9339 7.00004 15.8673 7 15.7995V5.20051C7.00004 5.13267 7.01847 5.06612 7.05334 5.00794C7.0882 4.94975 7.1382 4.90212 7.198 4.8701C7.2578 4.83808 7.32516 4.82289 7.39292 4.82613C7.46067 4.82937 7.52628 4.85093 7.58275 4.88851L15.532 10.188C15.5834 10.2223 15.6255 10.2686 15.6546 10.3231C15.6837 10.3775 15.699 10.4383 15.699 10.5C15.699 10.5617 15.6837 10.6225 15.6546 10.6769C15.6255 10.7314 15.5834 10.7778 15.532 10.812Z" fill="white"/>
</svg>
