<svg width="20" height="21" viewBox="0 0 20 21" fill="none" xmlns="http://www.w3.org/2000/svg">
<path d="M10 18C5.85775 18 2.5 14.6423 2.5 10.5C2.5 6.35775 5.85775 3 10 3C14.1423 3 17.5 6.35775 17.5 10.5C17.5 14.6423 14.1423 18 10 18ZM10 16.5C11.5913 16.5 13.1174 15.8679 14.2426 14.7426C15.3679 13.6174 16 12.0913 16 10.5C16 8.9087 15.3679 7.38258 14.2426 6.25736C13.1174 5.13214 11.5913 4.5 10 4.5C8.4087 4.5 6.88258 5.13214 5.75736 6.25736C4.63214 7.38258 4 8.9087 4 10.5C4 12.0913 4.63214 13.6174 5.75736 14.7426C6.88258 15.8679 8.4087 16.5 10 16.5ZM10 12.75C9.40326 12.75 8.83097 12.5129 8.40901 12.091C7.98705 11.669 7.75 11.0967 7.75 10.5C7.75 9.90326 7.98705 9.33097 8.40901 8.90901C8.83097 8.48705 9.40326 8.25 10 8.25C10.5967 8.25 11.169 8.48705 11.591 8.90901C12.0129 9.33097 12.25 9.90326 12.25 10.5C12.25 11.0967 12.0129 11.669 11.591 12.091C11.169 12.5129 10.5967 12.75 10 12.75Z" fill="white"/>
</svg>
