<svg width="778" height="55" viewBox="0 0 778 55" fill="none" xmlns="http://www.w3.org/2000/svg">
<path d="M1 1C6.19951 2.40199 17.7138 6.18313 42.7925 6.19729C49.8387 6.20127 53.8591 3.83231 58.5638 4.29964C66.5185 5.0898 70.6201 13.7171 76.3773 17.746C85.1542 23.8883 103.074 17.5407 109.106 13.5259C115.078 9.55085 120.353 5.72996 126.904 4.07306C134.759 2.08597 140.79 1.94882 143.924 1.47441C147.055 1.00038 150.733 5.22014 154.653 10.8706C162.863 22.7082 160.693 36.3756 163.308 42.0473C164.871 45.4369 169.584 48.1863 178.168 51.0186C207.001 60.5313 216.175 44.4477 222.466 42.0756C225.514 40.9265 228.758 40.185 231.891 39.7106C238.427 38.7213 243.414 46.2887 249.43 51.0257C255.742 55.9952 263.835 43.513 269.592 40.1921C276.829 36.0176 283.722 32.6369 294.443 32.3891C305.567 32.1319 317.715 38.7547 327.705 39.0025C339.687 39.2998 352.839 30.2861 361.997 26.7386C370.241 23.5454 381.083 23.6585 389.495 24.8339C399.359 26.2123 407.819 27.4255 415.414 28.1406C423.184 28.8723 433.455 30.7393 444.977 31.2137C460.07 31.8351 465.406 19.9198 473.268 15.6431C483.147 10.2692 491.074 18.447 499.973 21.9945C507.188 24.8708 514.637 27.4255 521.187 29.316C528.698 31.4839 535.058 31.2208 542.912 28.8629C551.771 26.2032 555.479 18.9569 561.77 16.5848C568.686 13.9773 577.471 16.0962 583.762 19.1622C589.674 22.0435 597.358 25.0463 604.442 29.309C612.252 34.008 619.884 38.2732 626.175 42.0544C632.466 45.8355 638.734 48.6678 645.025 50.5584C646.604 51.0328 648.159 51.5001 649.738 51.5072C651.316 51.5143 652.871 51.0469 654.191 50.1052C659.662 46.2005 660.223 38.3299 662.061 31.242C662.659 28.9341 662.328 25.6128 663.105 23.6939C663.883 21.775 665.438 21.3077 667.795 21.0669C677.959 20.0284 684.288 23.177 690.58 25.0676C707.434 30.1324 737.697 25.5561 743.989 26.4837C750.533 27.4487 757.584 29.3231 764.41 27.914C765.988 27.4396 767.543 26.9723 769.122 26.4979C770.701 26.0235 772.256 25.5561 777 23.6585" stroke="#6883E9" stroke-width="2" stroke-linecap="round"/>
</svg>
