<svg width="780" height="57" viewBox="0 0 780 57" fill="none" xmlns="http://www.w3.org/2000/svg">
<path d="M778 2C772.8 3.40199 761.286 7.18313 736.208 7.19729C729.161 7.20127 725.141 4.83231 720.436 5.29964C712.482 6.0898 708.38 14.7171 702.623 18.746C693.846 24.8883 675.926 18.5407 669.894 14.5259C663.922 10.5508 658.647 6.72996 652.096 5.07306C644.241 3.08597 638.21 2.94882 635.076 2.47441C631.945 2.00038 628.267 6.22014 624.347 11.8706C616.137 23.7082 618.307 37.3756 615.692 43.0473C614.129 46.4369 609.416 49.1863 600.832 52.0186C571.999 61.5313 562.825 45.4477 556.534 43.0756C553.486 41.9265 550.242 41.185 547.109 40.7106C540.573 39.7213 535.586 47.2887 529.57 52.0257C523.258 56.9952 515.165 44.513 509.408 41.1921C502.171 37.0176 495.278 33.6369 484.557 33.3891C473.433 33.1319 461.285 39.7547 451.295 40.0025C439.313 40.2998 426.161 31.2861 417.003 27.7386C408.759 24.5454 397.917 24.6585 389.505 25.8339C379.641 27.2123 371.181 28.4255 363.586 29.1406C355.816 29.8723 345.545 31.7393 334.023 32.2137C318.93 32.8351 313.594 20.9198 305.732 16.6431C295.853 11.2692 287.926 19.447 279.027 22.9945C271.812 25.8708 264.363 28.4255 257.813 30.316C250.302 32.4839 243.942 32.2208 236.088 29.8629C227.229 27.2032 223.521 19.9569 217.23 17.5848C210.314 14.9773 201.529 17.0962 195.238 20.1622C189.326 23.0435 181.642 26.0463 174.558 30.309C166.748 35.008 159.116 39.2732 152.825 43.0544C146.534 46.8355 140.266 49.6678 133.975 51.5584C132.396 52.0328 130.841 52.5001 129.262 52.5072C127.684 52.5143 126.129 52.0469 124.809 51.1052C119.338 47.2005 118.777 39.3299 116.939 32.242C116.341 29.9341 116.672 26.6128 115.895 24.6939C115.117 22.775 113.562 22.3077 111.205 22.0669C101.041 21.0284 94.7116 24.177 88.4203 26.0676C71.5661 31.1324 41.3026 26.5561 35.0114 27.4837C28.4668 28.4487 21.4157 30.3231 14.5903 28.914C13.0116 28.4396 11.4565 27.9723 9.87781 27.4979C8.29911 27.0235 6.74399 26.5561 2.00002 24.6585" stroke="#6883E9" stroke-opacity="0.2" stroke-width="3" stroke-linecap="round"/>
</svg>
